<?xml version="1.0" standalone="no"?>
<!DOCTYPE svg PUBLIC "-//W3C//DTD SVG 20010904//EN"
 "http://www.w3.org/TR/2001/REC-SVG-20010904/DTD/svg10.dtd">
<svg version="1.0" xmlns="http://www.w3.org/2000/svg"
 width="479.000000pt" height="474.000000pt" viewBox="0 0 479.000000 474.000000"
 preserveAspectRatio="xMidYMid meet">

<g transform="translate(0.000000,474.000000) scale(0.100000,-0.100000)"
fill="#000000" stroke="none">
<path d="M2150 4639 c-119 -15 -310 -59 -428 -99 -514 -171 -923 -487 -1230
-949 -147 -222 -273 -535 -329 -818 -26 -130 -27 -154 -27 -413 -1 -245 2
-288 22 -395 104 -545 372 -997 802 -1349 247 -203 624 -385 940 -454 197 -44
309 -56 505 -56 217 0 354 17 560 69 929 236 1607 1006 1705 1936 13 123 13
392 0 499 -14 113 -54 305 -86 410 -128 420 -406 835 -736 1101 -369 297 -770
469 -1203 519 -105 12 -401 11 -495 -1z m661 -1174 c627 -226 682 -246 707
-261 24 -16 30 -55 10 -72 -7 -5 -78 -39 -158 -75 l-145 -64 -5 -222 c-5 -228
-8 -240 -46 -241 -29 0 -34 32 -36 235 l-3 209 -140 34 c-512 124 -535 129
-546 115 -17 -20 -76 -16 -99 7 -11 11 -20 33 -20 50 0 62 71 91 128 51 16
-12 159 -51 365 -100 l338 -81 102 46 c142 64 143 65 126 74 -8 5 -161 61
-339 125 -179 64 -399 143 -489 176 l-163 60 -267 -97 c-778 -282 -741 -268
-730 -278 2 -2 87 -42 189 -89 102 -47 325 -153 495 -235 297 -143 311 -149
340 -137 17 8 144 68 283 134 246 117 295 134 320 109 21 -21 13 -37 -28 -58
l-40 -20 0 -143 c0 -113 -3 -147 -16 -165 -20 -29 -40 -28 -59 2 -13 19 -16
50 -15 143 1 67 -2 117 -7 116 -6 -1 -110 -49 -233 -107 -122 -59 -227 -106
-232 -106 -5 0 -112 50 -239 110 -127 61 -232 110 -234 110 -3 0 -6 -61 -7
-136 -3 -118 -5 -138 -20 -148 -13 -8 -23 -8 -35 0 -16 10 -19 33 -23 170 l-5
159 -220 102 c-342 159 -350 164 -353 195 -4 36 11 45 218 119 96 35 337 123
535 195 198 73 367 133 376 133 8 1 197 -64 420 -144z m-1163 -827 c32 -32 -4
-87 -48 -73 -25 8 -37 50 -20 70 15 18 51 20 68 3z m-35 -162 c105 -14 275
-34 377 -46 102 -12 195 -25 208 -30 25 -11 29 -42 7 -60 -17 -15 -7 -15 -462
40 -177 22 -329 37 -338 34 -33 -13 -35 -39 -11 -147 13 -58 27 -144 31 -191
l7 -86 354 0 c339 0 354 -1 364 -19 13 -25 13 -27 -6 -45 -13 -14 -61 -16
-370 -16 l-354 0 0 -22 c0 -13 -11 -67 -24 -121 -22 -91 -22 -99 -7 -118 16
-20 19 -19 411 51 217 39 411 72 431 72 20 1 48 -6 63 -15 24 -16 26 -23 26
-80 -1 -34 -11 -149 -23 -254 -13 -106 -19 -193 -14 -193 5 0 32 18 59 40 28
22 56 40 63 40 7 0 41 -21 74 -46 34 -26 63 -45 65 -43 1 2 -8 92 -20 199 -38
320 -33 350 50 350 23 0 213 -31 424 -70 210 -38 389 -67 397 -64 24 10 27 44
10 109 -8 33 -18 84 -22 112 l-6 53 -355 2 c-325 3 -356 4 -366 21 -8 12 -8
22 0 35 10 16 40 17 361 20 l350 2 7 88 c4 48 14 119 22 157 9 39 18 91 21
117 9 75 12 74 -356 28 -386 -48 -459 -52 -475 -27 -8 12 -8 22 0 34 8 14 37
21 120 30 60 7 238 29 396 48 264 33 289 35 322 21 20 -8 45 -30 56 -48 19
-29 21 -43 15 -110 -5 -72 -4 -78 13 -78 50 0 83 -92 83 -235 0 -55 -5 -123
-11 -152 -12 -52 -47 -103 -73 -103 -12 0 -14 -13 -10 -63 5 -57 3 -65 -21
-94 -15 -17 -41 -36 -59 -42 -35 -11 -56 -8 -565 84 -144 27 -265 45 -269 41
-4 -3 7 -133 25 -288 32 -293 32 -308 -9 -308 -11 0 -57 29 -104 65 l-86 64
-88 -64 c-147 -108 -149 -104 -116 181 14 121 29 249 33 287 5 37 7 69 5 71
-3 3 -143 -20 -610 -104 -215 -38 -234 -40 -266 -26 -60 25 -83 84 -64 163 7
28 6 32 -15 35 -56 8 -95 144 -85 293 8 110 33 177 72 189 17 6 31 11 33 12 2
1 -2 29 -8 62 -11 53 -10 64 8 104 13 30 30 49 53 61 43 21 25 21 252 -7z
m877 -56 c62 -31 91 -92 100 -203 4 -51 15 -110 23 -132 56 -142 -55 -305
-208 -305 -87 0 -180 64 -211 146 -20 52 -15 143 10 192 9 18 16 55 16 90 0
73 23 152 52 179 60 56 147 69 218 33z"/>
<path d="M1299 2143 c-6 -16 -11 -73 -12 -128 0 -128 28 -222 47 -152 8 29 8
271 0 291 -9 24 -23 19 -35 -11z"/>
<path d="M3463 2143 c-10 -36 -10 -239 0 -275 8 -32 22 -36 32 -10 14 32 18
225 6 270 -14 48 -27 54 -38 15z"/>
<path d="M2338 2335 c-24 -24 -38 -63 -38 -106 0 -17 3 -17 41 -4 52 19 76 19
129 0 l43 -15 -7 47 c-9 66 -46 103 -102 103 -31 0 -48 -6 -66 -25z"/>
<path d="M2369 2151 c-127 -39 -149 -201 -37 -272 67 -41 167 -8 203 67 50
107 -56 238 -166 205z m69 -97 c14 -10 22 -26 22 -44 0 -72 -94 -82 -115 -13
-4 17 1 29 19 48 29 29 43 31 74 9z"/>
</g>
</svg>
