<?xml version="1.0" standalone="no"?>
<!DOCTYPE svg PUBLIC "-//W3C//DTD SVG 20010904//EN"
 "http://www.w3.org/TR/2001/REC-SVG-20010904/DTD/svg10.dtd">
<svg version="1.0" xmlns="http://www.w3.org/2000/svg"
 width="1024.000000pt" height="1024.000000pt" viewBox="0 0 1024.000000 1024.000000"
 preserveAspectRatio="xMidYMid meet">

<g transform="translate(0.000000,1024.000000) scale(0.100000,-0.100000)"
fill="#000000" stroke="none">
<path d="M4820 8285 c-689 -75 -1378 -389 -1893 -862 -292 -268 -553 -615
-733 -973 -335 -669 -428 -1445 -262 -2180 138 -612 451 -1157 929 -1615 367
-351 857 -630 1371 -779 788 -229 1645 -148 2389 224 344 173 599 360 874 641
528 541 819 1160 906 1929 15 137 15 517 0 650 -78 669 -308 1220 -727 1747
-432 543 -1095 968 -1774 1138 -348 87 -748 116 -1080 80z m965 -518 c45 -15
101 -40 125 -56 33 -21 62 -30 111 -35 98 -9 174 -31 274 -80 175 -84 289
-195 369 -361 65 -134 80 -197 79 -345 0 -166 -21 -232 -169 -548 -64 -136
-143 -308 -176 -382 -145 -326 -208 -415 -374 -528 -427 -289 -1022 -87 -1214
411 -87 225 -80 427 26 723 25 71 75 213 110 316 35 103 80 220 100 260 100
200 274 363 474 444 98 39 98 47 0 39 -359 -29 -661 -219 -785 -494 -19 -43
-19 -44 -1 -55 102 -60 136 -164 84 -258 -27 -50 -75 -78 -134 -78 l-41 0 -17
-61 c-9 -34 -15 -62 -14 -63 2 -1 36 -28 77 -61 61 -49 70 -60 55 -66 -11 -4
-95 -19 -189 -34 -467 -74 -762 -188 -1105 -429 -219 -154 -456 -393 -670
-675 -71 -95 -250 -359 -250 -370 0 -4 53 10 118 31 240 80 662 208 753 229
71 17 109 33 157 65 34 23 102 55 150 70 77 26 101 29 212 29 105 0 135 -4
184 -23 79 -29 319 -162 626 -346 122 -73 151 -127 116 -211 -17 -40 -29 -30
134 -125 69 -40 195 -115 280 -165 85 -50 220 -129 300 -175 157 -91 194 -119
208 -159 14 -39 6 -66 -46 -164 -96 -182 -141 -202 -272 -120 -41 25 -111 67
-155 93 -44 26 -156 92 -250 147 -223 130 -263 153 -268 153 -3 0 -14 -15 -24
-33 -23 -39 -84 -63 -135 -53 -18 3 -91 41 -162 84 l-128 78 -47 -23 c-50 -24
-129 -30 -163 -12 -17 9 -25 6 -47 -15 -53 -51 -129 -59 -208 -21 -29 13 -53
20 -53 15 0 -16 -91 -68 -139 -80 -41 -10 -60 -9 -111 4 -68 18 -118 20 -138
7 -20 -12 -82 -474 -82 -612 l0 -49 1328 -1 c730 -1 1338 -2 1352 -3 23 -1 25
3 28 46 l3 46 -63 34 c-92 50 -241 138 -252 149 -8 7 18 69 40 97 2 4 28 -10
194 -106 57 -33 108 -58 112 -56 4 3 8 13 8 22 0 10 7 27 15 39 18 26 17 27
-142 122 -68 40 -123 77 -123 82 0 18 44 99 55 99 5 0 83 -42 173 -94 l163
-95 47 22 c39 18 65 22 157 22 101 0 114 -2 163 -28 71 -37 126 -89 161 -151
38 -68 50 -109 54 -186 l4 -64 470 3 c528 3 531 2 552 -62 13 -40 4 -72 -29
-102 -21 -19 -38 -20 -553 -23 l-530 -3 -40 -35 c-22 -20 -65 -48 -96 -63 -49
-23 -69 -26 -156 -26 -87 0 -107 3 -155 26 -30 15 -72 43 -94 63 l-38 36
-1834 2 -1834 3 -25 26 c-38 38 -43 88 -12 125 l25 29 338 3 c249 2 340 6 346
15 4 7 8 41 8 77 0 75 24 294 46 424 8 48 14 90 12 91 -2 1 -73 -15 -158 -36
-421 -104 -558 -113 -705 -44 -83 40 -140 96 -182 183 -36 73 -38 80 -38 176
0 127 14 173 115 371 312 615 791 1159 1272 1446 245 146 553 257 831 301 l76
11 11 56 c11 59 51 231 54 231 0 0 30 -9 64 -20 35 -11 67 -20 72 -20 4 0 13
14 19 32 13 37 12 38 -77 75 -30 12 -56 24 -60 27 -3 3 5 43 17 88 94 345 395
614 781 699 130 29 365 22 475 -14z m1660 -1839 c25 -11 55 -54 55 -79 0 -20
-221 -463 -242 -486 -28 -30 -83 -31 -115 -1 -43 41 -34 76 92 328 128 256
140 270 210 238z m-896 -334 c19 -25 21 -40 21 -205 0 -170 -1 -179 -22 -203
-37 -40 -70 -43 -109 -8 l-34 30 0 180 c0 177 0 181 24 206 34 36 92 36 120 0z
m-66 -825 c41 -19 47 -48 47 -240 l0 -181 -29 -29 c-16 -16 -38 -29 -48 -29
-19 0 -62 25 -75 44 -4 6 -8 98 -8 204 0 192 0 193 25 217 26 27 51 31 88 14z
m519 -67 c32 -33 31 -64 -5 -133 -19 -35 -62 -118 -95 -185 -68 -134 -88 -157
-134 -157 -35 0 -78 40 -78 74 0 28 177 377 206 406 20 20 31 24 57 19 18 -4
40 -14 49 -24z m-1020 -31 c26 -21 228 -377 228 -403 0 -8 -9 -27 -21 -42 -16
-20 -29 -26 -58 -26 -57 0 -59 2 -252 345 -36 63 -36 80 0 116 34 34 68 37
103 10z m1629 -30 c40 -41 39 -80 -3 -119 -61 -55 -389 -337 -425 -364 -43
-33 -81 -35 -117 -7 -40 31 -37 91 7 133 33 31 271 241 382 335 73 62 110 67
156 22z m87 -674 c15 -14 22 -32 22 -57 0 -62 -25 -76 -180 -99 -74 -11 -199
-30 -277 -42 -135 -21 -143 -22 -168 -5 -37 24 -48 59 -31 101 8 18 24 36 37
40 49 16 535 93 554 88 11 -3 30 -15 43 -26z m-237 -846 c20 -20 29 -39 29
-61 0 -22 -9 -41 -29 -61 l-29 -29 -2300 0 -2299 0 -27 26 c-39 40 -40 97 0
132 l25 22 2300 0 2301 0 29 -29z m-472 -437 c59 -49 28 -145 -51 -159 -18 -3
-842 -4 -1831 -3 l-1799 3 -29 33 c-44 49 -37 106 19 136 24 13 260 15 1844
16 l1816 0 31 -26z"/>
<path d="M5830 7494 c-263 -47 -457 -172 -587 -379 -43 -67 -75 -142 -111
-256 -16 -52 -57 -170 -90 -264 -92 -257 -105 -312 -106 -440 -1 -89 3 -124
22 -185 78 -248 246 -409 493 -472 154 -38 327 -6 468 86 77 51 154 124 145
138 -4 6 -119 7 -324 3 -275 -6 -322 -5 -347 9 -38 19 -57 64 -49 111 8 43
219 522 250 568 l22 32 405 3 406 2 51 118 c64 148 84 226 83 327 0 99 -13
159 -57 250 -100 212 -303 341 -549 350 -55 2 -111 2 -125 -1z"/>
<path d="M5679 6177 c-42 -91 -119 -268 -119 -274 0 -2 135 -3 301 -3 l300 0
70 148 c38 81 76 160 84 175 8 16 15 33 15 38 0 6 -116 9 -304 9 l-304 -2 -43
-91z"/>
<path d="M3800 5216 c-128 -34 -251 -140 -315 -268 -44 -91 -69 -204 -61 -278
18 -160 145 -276 251 -228 20 9 25 17 20 32 -50 170 -15 311 107 442 130 139
290 166 463 79 214 -108 279 -235 209 -410 -15 -36 -25 -67 -23 -68 72 -48
169 -101 173 -95 10 13 106 208 106 215 0 4 -27 25 -60 47 -33 21 -60 42 -60
47 0 5 13 36 30 69 l30 59 -28 19 c-46 32 -433 257 -507 295 -38 19 -88 40
-110 46 -52 14 -168 13 -225 -3z"/>
<path d="M3130 4974 c-622 -195 -693 -224 -751 -305 -129 -181 -64 -370 141
-409 47 -9 175 5 270 30 19 5 148 37 285 71 138 34 251 62 252 63 1 1 -14 33
-32 71 -72 149 -66 337 16 498 14 26 16 37 7 37 -7 -1 -92 -25 -188 -56z"/>
<path d="M3994 4841 c-53 -24 -111 -93 -129 -155 -19 -65 -19 -92 4 -143 44
-96 128 -80 201 40 l18 28 21 -34 c24 -39 38 -47 83 -47 62 0 141 117 124 183
-17 71 -138 147 -231 147 -27 0 -68 -9 -91 -19z"/>
<path d="M4859 4518 c-17 -33 -18 -42 -7 -50 16 -10 158 -94 318 -188 63 -37
177 -103 252 -147 l137 -81 21 40 c17 33 19 43 8 50 -23 15 -241 144 -318 188
-65 37 -146 85 -343 201 l-47 28 -21 -41z"/>
<path d="M6377 3847 c-141 -45 -192 -213 -97 -321 42 -47 122 -80 174 -72 55
9 130 61 157 111 84 147 -72 334 -234 282z"/>
</g>
</svg>
