<?xml version="1.0" standalone="no"?>
<!DOCTYPE svg PUBLIC "-//W3C//DTD SVG 20010904//EN"
 "http://www.w3.org/TR/2001/REC-SVG-20010904/DTD/svg10.dtd">
<svg version="1.0" xmlns="http://www.w3.org/2000/svg"
 width="1024.000000pt" height="1024.000000pt" viewBox="0 0 1024.000000 1024.000000"
 preserveAspectRatio="xMidYMid meet">

<g transform="translate(0.000000,1024.000000) scale(0.100000,-0.100000)"
fill="#000000" stroke="none">
<path d="M4820 8285 c-689 -75 -1378 -389 -1893 -862 -292 -268 -553 -615
-733 -973 -335 -669 -428 -1445 -262 -2180 138 -612 451 -1157 929 -1615 367
-351 857 -630 1371 -779 788 -229 1645 -148 2389 224 344 173 599 360 874 641
528 541 819 1160 906 1929 15 137 15 517 0 650 -78 669 -308 1220 -727 1747
-432 543 -1095 968 -1774 1138 -348 87 -748 116 -1080 80z m505 -1699 c94 -31
199 -99 250 -161 94 -116 122 -239 86 -391 l-22 -91 22 -42 c40 -78 13 -188
-68 -268 -35 -35 -44 -53 -53 -102 -37 -207 -119 -334 -258 -399 -51 -24 -69
-27 -167 -27 -104 0 -114 2 -176 32 -79 39 -160 120 -194 196 -25 53 -65 196
-65 231 0 10 -24 44 -53 75 -79 86 -101 192 -56 275 20 37 20 42 5 95 -24 87
-29 151 -17 216 33 181 181 322 394 376 106 27 264 21 372 -15z m-1344 -466
c139 -26 254 -116 316 -245 39 -82 48 -139 97 -583 18 -166 36 -305 39 -308 3
-4 30 0 59 7 37 9 70 27 108 59 119 101 169 120 205 80 17 -18 17 -43 1 -81
-6 -13 26 -43 133 -128 132 -104 141 -113 141 -145 0 -29 -8 -42 -51 -79 l-52
-45 47 -73 c25 -40 46 -76 46 -80 0 -15 -51 -326 -80 -487 l-30 -163 29 -82
c45 -130 112 -296 121 -302 8 -5 73 153 131 317 l23 67 -18 103 c-52 297 -86
506 -88 533 -1 20 12 49 41 89 22 33 41 64 41 70 0 7 -22 33 -50 60 -80 77
-76 84 95 217 l134 104 -5 46 c-7 51 11 79 50 79 27 0 102 -46 159 -100 39
-35 61 -45 202 -86 l159 -46 39 41 c43 45 65 51 92 21 13 -15 16 -29 11 -62
l-6 -43 54 -28 c69 -36 136 -101 186 -179 l39 -62 24 54 c34 78 87 245 87 277
0 30 26 63 49 63 9 0 35 -15 59 -34 23 -19 101 -57 175 -87 72 -29 154 -63
180 -76 136 -67 218 -205 233 -392 7 -77 6 -79 -19 -96 -29 -19 -62 -13 -76
13 -4 9 -11 49 -15 88 -10 121 -59 218 -134 269 -41 28 -170 80 -179 72 -2 -3
21 -51 52 -107 61 -108 65 -139 24 -161 -40 -21 -62 2 -148 162 -46 85 -89
160 -96 167 -9 11 -17 -2 -40 -65 -46 -126 -117 -283 -126 -277 -13 8 -11 -30
11 -252 10 -110 25 -265 31 -347 11 -137 11 -148 -6 -167 -10 -11 -28 -20 -40
-20 -48 0 -51 15 -84 385 -17 193 -38 380 -47 418 -29 120 -108 218 -219 271
-64 30 -312 102 -321 93 -7 -6 10 -36 111 -200 l48 -78 -20 -27 c-25 -34 -56
-39 -81 -12 -11 11 -58 85 -106 163 -48 78 -104 165 -124 192 l-37 50 -6 -180
c-11 -329 -64 -591 -195 -970 -107 -306 -176 -455 -223 -474 -48 -20 -79 2
-123 84 -85 161 -228 576 -282 820 -49 219 -66 366 -66 563 l-1 167 -24 -30
c-26 -32 -131 -199 -204 -323 -46 -76 -71 -93 -110 -73 -45 25 -38 53 49 191
45 72 80 134 78 139 -5 13 -291 -74 -349 -105 -97 -53 -177 -172 -199 -294 -7
-41 -70 -698 -70 -732 0 -4 -7 -14 -16 -22 -22 -22 -57 -20 -79 5 -19 20 -18
29 13 372 18 194 36 365 39 382 5 25 3 28 -9 18 -16 -14 -43 39 -114 222 -23
60 -46 111 -51 112 -7 3 -104 -165 -159 -275 -22 -45 -56 -67 -83 -52 -30 15
-43 44 -32 72 5 13 30 59 55 103 25 44 46 83 46 88 0 13 -20 7 -94 -27 -125
-58 -187 -142 -207 -283 -16 -119 -18 -123 -44 -135 -19 -9 -29 -7 -51 7 -26
17 -27 18 -20 101 17 209 119 352 299 419 51 19 53 23 61 110 12 138 69 663
81 755 32 225 150 370 340 416 64 16 99 16 166 4z m2444 -5 c197 -52 327 -229
308 -421 -4 -38 -1 -58 12 -77 35 -54 -9 -228 -70 -275 -13 -10 -29 -38 -35
-63 -30 -109 -97 -196 -186 -240 -40 -19 -64 -24 -129 -23 -157 1 -269 86
-325 248 -11 32 -35 75 -54 97 -60 66 -89 226 -48 267 15 15 17 28 12 72 -28
279 232 488 515 415z m-1935 -1665 c40 -40 20 -82 -50 -105 -27 -9 -50 -23
-50 -30 0 -8 53 -105 119 -217 289 -496 402 -701 399 -727 -4 -31 -49 -52 -76
-35 -9 6 -84 127 -166 270 -81 142 -208 363 -282 490 -78 135 -134 243 -134
258 0 32 23 47 126 86 95 35 89 35 114 10z m1385 -23 c96 -41 120 -70 94 -115
-9 -15 -70 -119 -136 -232 -66 -113 -180 -311 -253 -440 -178 -315 -174 -310
-209 -310 -33 0 -53 20 -53 53 0 23 84 176 366 661 86 148 154 272 151 275 -3
3 -29 17 -58 31 -44 21 -52 30 -55 57 -2 23 3 35 20 47 25 18 24 18 133 -27z
m-1665 -565 c22 -17 24 -31 33 -180 11 -177 8 -192 -43 -192 -48 0 -56 22 -68
188 -6 84 -8 160 -5 168 5 14 34 31 54 33 4 1 17 -7 29 -17z m1864 6 c14 -6
28 -19 31 -29 8 -24 -15 -309 -27 -331 -5 -12 -20 -18 -42 -18 -58 0 -61 11
-48 193 10 147 13 164 33 179 25 21 22 21 53 6z"/>
<path d="M4968 6495 c-77 -21 -140 -56 -197 -109 -105 -99 -122 -186 -76 -388
25 -105 25 -111 9 -130 -10 -10 -24 -16 -31 -14 -15 6 -18 -49 -4 -86 10 -27
46 -66 80 -88 19 -13 27 -35 46 -128 13 -62 35 -137 49 -167 87 -191 324 -238
473 -93 53 52 86 126 113 258 22 104 23 106 76 155 38 37 54 60 59 87 7 38 0
76 -12 65 -3 -4 -14 -2 -24 4 -21 11 -25 52 -9 95 6 15 9 29 7 31 -3 2 -27 -5
-54 -16 -125 -49 -313 -65 -443 -37 -127 28 -208 76 -282 169 -31 40 -38 57
-36 85 6 70 66 69 111 -2 33 -53 77 -88 155 -124 48 -22 74 -27 173 -30 135
-5 241 16 349 71 l65 32 -2 46 c-4 128 -115 250 -276 304 -62 20 -94 25 -174
24 -54 0 -119 -7 -145 -14z"/>
<path d="M3809 6007 c-118 -44 -193 -138 -218 -272 -13 -68 -93 -826 -88 -831
8 -8 104 46 124 70 26 30 40 32 71 10 14 -10 22 -25 22 -44 0 -34 51 -200 86
-279 l24 -54 51 76 c53 81 100 125 177 167 l47 25 -3 52 c-3 43 -1 53 16 62
32 17 43 14 83 -30 37 -40 38 -40 78 -29 23 6 41 16 41 22 0 6 -4 50 -10 97
-5 47 -21 187 -36 310 -14 124 -27 228 -30 233 -3 4 -12 8 -20 8 -34 0 -173
54 -236 91 -90 53 -188 147 -188 180 0 14 5 30 12 37 25 25 60 12 126 -49 69
-63 195 -132 264 -144 l36 -7 -9 42 c-22 99 -96 197 -181 241 -54 28 -184 36
-239 16z m-156 -599 c9 -7 25 -43 36 -80 34 -124 104 -196 200 -206 117 -11
206 69 241 216 16 69 47 93 86 67 25 -16 26 -21 21 -69 -7 -67 -54 -172 -102
-224 -118 -132 -331 -130 -453 2 -50 54 -78 107 -98 186 -17 68 -12 97 19 110
30 12 31 12 50 -2z"/>
<path d="M4780 4781 c0 -66 3 -127 6 -135 5 -13 23 -1 85 55 l78 70 -80 65
c-44 35 -82 64 -84 64 -3 0 -5 -54 -5 -119z"/>
<path d="M5360 4839 c-41 -34 -75 -65 -75 -69 0 -10 145 -140 156 -140 5 0 9
61 9 135 0 74 -3 135 -7 135 -5 -1 -42 -28 -83 -61z"/>
<path d="M4845 4526 l-49 -42 23 -115 c27 -136 58 -270 65 -276 5 -5 7 6 42
218 l28 166 -30 46 -31 46 -48 -43z"/>
<path d="M5301 4518 c-17 -23 -29 -49 -27 -58 3 -8 17 -93 33 -187 15 -95 30
-173 34 -173 6 0 67 271 77 343 4 34 1 42 -34 78 -21 21 -41 39 -45 39 -4 0
-21 -19 -38 -42z"/>
<path d="M6205 6008 c-91 -32 -165 -118 -185 -213 -11 -52 -2 -117 25 -186 8
-20 -22 -52 -41 -45 -10 4 -14 -4 -14 -29 0 -48 16 -85 54 -125 21 -21 42 -61
55 -101 39 -118 122 -188 224 -189 88 0 169 63 203 160 9 25 21 58 27 74 6 16
27 48 47 71 24 28 39 57 44 85 7 48 2 60 -25 60 -19 0 -42 37 -32 52 2 4 -6
10 -19 12 -145 30 -182 40 -233 65 -76 36 -160 102 -180 142 -15 28 -15 33 0
55 23 35 51 30 108 -22 81 -73 187 -118 304 -130 l64 -7 -7 39 c-18 98 -101
197 -191 228 -53 18 -182 20 -228 4z"/>
</g>
</svg>
